# xmcd
#
# Track frame offsets: 
#        150
#        20032
#        42604
#        61928
#        81210
#        99645
#        122714
#        141679
#        156321
#        176868
#        196800
#        215874
#        236229
#        253911
#
# Disc length: 3640 seconds
#
# Revision: 0
# Processed by: cddbd v1.5.2PL0 Copyright (c) Steve Scherf et al.
# Submitted via: ExactAudioCopyFreeDBPlugin 1.0
#
DISCID=e10e360e
DTITLE=Khanh Ly_Le Uyen - Ca khuc da vang
DYEAR=1900
DGENRE=
TTITLE0=Gia tai cua me
TTITLE1=Du muc
TTITLE2=Hat tren nhung xac nguoi 
TTITLE3=ca dao me
TTITLE4=Nguoi con gai VN da vang
TTITLE5=Nguoi gia em be
TTITLE6=Hue saigon Hanoi
TTITLE7=Ngay dai tren que huong
TTITLE8=Lai gan voi nhau
TTITLE9=Cho nhin que huong sang choi
TTITLE10=Giot nuoc mat cho que huong
TTITLE11=Nguoi ve bong nho
TTITLE12=Toi se di tham
TTITLE13=Hay nhin lai
EXTD=
EXTT0=
EXTT1=
EXTT2=
EXTT3=
EXTT4=
EXTT5=
EXTT6=
EXTT7=
EXTT8=
EXTT9=
EXTT10=
EXTT11=
EXTT12=
EXTT13=
PLAYORDER=
